<?xml version="1.0" standalone="no"?>
<!DOCTYPE svg PUBLIC "-//W3C//DTD SVG 20010904//EN"
 "http://www.w3.org/TR/2001/REC-SVG-20010904/DTD/svg10.dtd">
<svg version="1.0" xmlns="http://www.w3.org/2000/svg"
 width="720.000000pt" height="719.000000pt" viewBox="0 0 720.000000 719.000000"
 preserveAspectRatio="xMidYMid meet">
<metadata>
Created by potrace 1.16, written by Peter Selinger 2001-2019
</metadata>
<g transform="translate(0.000000,719.000000) scale(0.100000,-0.100000)"
fill="#000000" stroke="none">
<path d="M3773 6329 c-6 -6 -27 -12 -48 -14 -41 -4 -61 -15 -27 -15 12 0 39
-9 59 -20 l38 -20 -42 0 c-23 0 -43 -4 -45 -10 -1 -5 -34 -11 -72 -12 -39 -1
-61 -5 -50 -9 17 -6 16 -7 -6 -11 -19 -4 -16 -6 13 -7 29 -1 37 -5 37 -20 0
-25 -34 -33 -127 -30 -40 1 -76 -1 -80 -4 -3 -4 1 -7 9 -7 9 0 21 -7 28 -15
11 -13 10 -18 -6 -30 -10 -8 -27 -15 -37 -15 -25 0 -97 -24 -97 -31 0 -4 -15
-10 -34 -13 -19 -4 -39 -13 -46 -21 -7 -8 -17 -15 -21 -15 -5 0 -26 -15 -45
-32 -52 -48 -59 -50 -89 -27 -22 18 -31 20 -51 10 -31 -14 -31 -27 1 -35 14
-4 25 -11 25 -17 0 -6 -7 -8 -16 -5 -12 4 -15 2 -11 -9 9 -22 -11 -29 -36 -12
-24 15 -77 13 -114 -5 -32 -16 -29 -25 14 -33 26 -5 33 -9 23 -15 -12 -7 -11
-10 3 -15 13 -6 47 -56 47 -71 0 -6 -63 16 -76 27 -11 9 -14 8 -14 -2 0 -7
-10 -3 -25 11 l-25 23 -8 -24 c-8 -19 -5 -26 14 -36 13 -6 38 -13 56 -15 38
-4 51 -28 15 -28 -14 0 -27 5 -29 10 -2 6 -21 13 -43 15 -32 5 -36 4 -17 -4
12 -6 22 -17 22 -24 0 -19 -26 -41 -39 -33 -5 3 -14 -15 -21 -41 -6 -27 -14
-57 -16 -69 -3 -11 6 -48 20 -82 14 -34 26 -71 26 -82 0 -14 6 -20 18 -18 14
2 17 -4 16 -37 -1 -28 4 -44 17 -56 10 -9 19 -21 19 -28 0 -6 6 -11 14 -11 8
0 20 -17 26 -37 15 -48 30 -65 30 -35 0 12 5 22 10 22 13 0 13 -35 0 -79 -10
-37 -5 -57 6 -25 4 10 15 28 25 39 10 11 25 56 34 100 20 97 70 248 85 253 5
2 10 10 10 17 0 7 3 15 8 17 4 2 22 27 41 56 32 51 35 52 70 47 115 -18 147
-40 96 -63 -14 -6 -25 -19 -25 -27 0 -9 -11 -26 -25 -39 -14 -13 -25 -25 -25
-27 0 -2 28 -2 63 0 103 7 165 2 196 -14 17 -8 43 -15 58 -16 l28 -1 -30 -8
c-16 -5 -66 -15 -110 -23 -108 -20 -122 -24 -137 -37 -7 -6 -22 -17 -33 -25
-20 -14 -20 -14 1 -15 12 0 32 8 45 19 31 24 93 41 144 40 l40 -2 -45 -7 c-66
-11 -100 -24 -155 -59 l-50 -31 50 -1 c28 0 61 -3 75 -5 14 -3 35 -4 47 -4 35
0 73 -18 73 -35 0 -16 31 -19 65 -6 15 6 11 9 -23 14 -67 11 -53 31 16 24 74
-8 132 1 132 20 0 22 -30 75 -53 93 -11 9 -21 29 -23 44 -3 25 0 28 22 23 35
-6 32 28 -6 65 -16 15 -30 32 -30 37 0 10 96 41 125 41 16 0 56 27 96 65 9 8
21 15 27 15 7 0 12 4 12 9 0 5 8 12 18 15 9 4 30 24 45 46 16 22 35 40 43 40
8 0 14 7 14 15 0 10 10 15 28 15 16 0 31 3 35 6 3 3 27 8 53 10 40 3 49 0 66
-21 11 -14 28 -25 38 -25 69 0 121 -71 139 -188 6 -35 16 -71 23 -80 11 -13 9
-14 -17 -8 -43 11 -230 19 -271 12 -18 -4 -46 -19 -61 -34 -15 -16 -37 -32
-48 -37 -19 -8 -19 -9 3 -12 12 -3 22 -9 22 -14 0 -6 -4 -8 -9 -5 -4 3 -25
-13 -45 -35 -36 -40 -44 -59 -27 -59 5 0 12 -22 16 -49 4 -27 15 -58 26 -70
10 -11 19 -26 19 -33 0 -10 2 -10 9 1 5 7 14 11 19 7 12 -7 59 -13 167 -22 82
-7 150 8 165 36 6 11 18 20 26 20 11 0 14 5 10 16 -4 9 -1 23 5 30 9 11 9 14
0 14 -9 0 -9 5 0 22 9 16 9 23 0 26 -6 2 -11 10 -11 18 0 8 -4 14 -9 14 -5 0
-8 8 -7 18 4 25 33 27 46 3 12 -23 36 -28 43 -8 3 7 6 5 6 -5 1 -10 5 -18 9
-18 10 0 26 -67 47 -205 9 -55 22 -113 30 -130 7 -16 16 -43 19 -58 4 -15 11
-25 16 -22 13 8 11 91 -2 131 -15 43 -3 100 22 107 17 4 20 14 20 61 0 40 6
65 19 84 12 17 23 62 31 122 11 82 16 98 39 117 23 19 27 20 33 5 4 -11 7 -3
7 20 1 20 6 38 13 40 8 3 9 12 1 34 -9 25 -8 33 6 42 14 10 14 11 -3 11 -13 1
-16 6 -12 18 4 9 2 19 -3 23 -7 4 -5 16 4 34 8 15 13 32 10 36 -3 4 2 27 10
50 20 55 19 58 -6 26 -27 -34 -35 -33 -50 7 -7 20 -30 47 -59 68 -47 33 -75
84 -64 114 3 7 1 16 -5 20 -6 3 -11 16 -11 28 0 13 -22 43 -59 77 -46 44 -71
59 -117 72 -63 18 -166 43 -224 54 -44 9 -133 5 -140 -5 -5 -9 -17 -8 -135 7
-42 6 -75 6 -82 0 -7 -5 -14 -5 -18 2 -8 13 -18 13 -32 -1z"/>
<path d="M4050 4966 c0 -3 5 -14 11 -24 8 -13 9 -31 2 -58 -10 -44 -27 -47
-89 -18 -32 15 -36 15 -74 -5 -49 -25 -73 -26 -105 -5 -18 12 -37 14 -82 9
-72 -8 -93 -14 -93 -25 0 -5 9 -12 21 -15 l21 -7 -22 -15 c-11 -8 -27 -16 -33
-17 -7 -1 -18 -5 -25 -10 -7 -4 -19 -3 -26 3 -7 6 -16 7 -20 3 -4 -4 -28 -7
-52 -7 -36 0 -43 3 -38 17 7 23 -16 35 -31 15 -7 -10 -17 -17 -24 -17 -6 0
-14 -7 -17 -15 -4 -8 -14 -15 -24 -15 -28 0 -30 -10 -18 -85 10 -60 9 -68 -5
-77 -9 -5 -17 -18 -17 -28 0 -11 -4 -20 -10 -20 -5 0 -10 6 -10 14 0 12 -28
25 -54 26 -5 0 -6 -13 -3 -29 5 -21 1 -36 -13 -53 -18 -21 -19 -21 -20 -4 0
18 -2 17 -20 -4 -11 -12 -17 -26 -14 -31 2 -4 -1 -17 -8 -28 -9 -15 -16 -17
-30 -10 -10 5 -18 14 -18 20 0 6 -11 25 -25 43 -14 18 -25 38 -25 44 0 7 -3
12 -7 12 -18 0 -36 61 -40 138 -5 70 -8 81 -20 71 -8 -7 -31 -15 -51 -18 -37
-6 -37 -7 -40 -59 -3 -44 0 -52 15 -52 12 -1 7 -7 -15 -18 -25 -14 -30 -20
-20 -30 9 -9 6 -12 -18 -12 -16 0 -39 -7 -51 -15 -21 -14 -24 -14 -44 6 -13
13 -24 17 -28 11 -3 -6 -13 -10 -21 -10 -8 1 -30 0 -49 0 -33 -2 -34 -2 -28
-42 5 -38 4 -39 -16 -28 -25 14 -97 18 -97 6 0 -5 -11 -8 -25 -8 -30 0 -194
-82 -176 -88 8 -3 6 -9 -6 -18 -17 -13 -17 -14 5 -20 30 -9 28 -28 -5 -44 -72
-33 -95 -51 -191 -149 -123 -125 -177 -189 -168 -198 10 -10 87 16 139 48 26
16 50 29 53 29 3 0 30 16 60 35 60 39 146 70 214 79 44 5 43 5 -9 -9 -74 -19
-141 -45 -141 -55 0 -4 23 -14 50 -21 58 -15 69 -31 13 -18 -67 15 -111 10
-156 -17 -47 -30 -77 -58 -77 -74 0 -5 -8 -10 -17 -10 -9 0 -14 -3 -10 -6 8
-9 -16 -55 -42 -78 -25 -23 -28 -66 -4 -66 14 0 15 -2 1 -17 -8 -10 -21 -33
-29 -50 -8 -18 -17 -33 -21 -33 -5 0 -8 -9 -8 -20 0 -21 15 -27 25 -10 3 6 13
10 22 10 9 0 69 22 132 49 138 59 253 93 408 123 110 20 140 35 117 58 -5 5
-54 14 -110 20 -89 9 -118 8 -238 -10 -75 -12 -157 -27 -183 -35 -69 -21 -81
-20 -55 8 22 24 107 47 173 47 49 1 342 64 333 72 -4 4 8 3 27 -2 19 -6 36
-10 39 -11 3 0 -4 -4 -15 -9 -16 -8 -11 -9 20 -8 22 1 47 -2 55 -8 8 -5 31
-14 50 -19 l35 -11 -32 -32 c-17 -18 -38 -32 -46 -32 -8 0 -17 -6 -20 -14 -3
-8 -32 -20 -64 -26 -221 -44 -364 -82 -413 -111 -13 -7 -12 -8 3 -9 24 0 21
-12 -9 -33 l-25 -19 7 27 7 27 -49 -27 c-90 -48 -128 -73 -145 -97 -10 -13
-23 -23 -30 -23 -6 0 -23 -17 -36 -37 -25 -41 -21 -48 10 -20 20 16 20 16 13
-3 -5 -11 -9 -27 -10 -35 -2 -26 -48 -83 -56 -70 -5 8 -9 7 -13 -4 -4 -9 -1
-16 5 -16 7 0 1 -10 -11 -22 -18 -16 -27 -19 -40 -11 -15 9 -22 4 -44 -33 -15
-25 -27 -50 -27 -56 0 -13 34 30 43 55 7 19 32 23 42 7 3 -5 -1 -10 -10 -10
-8 0 -25 -20 -37 -45 -12 -24 -25 -42 -29 -40 -4 3 -9 -5 -12 -16 -5 -20 -7
-20 -36 10 -25 26 -31 28 -31 13 0 -10 -16 -34 -36 -53 -20 -18 -40 -44 -45
-56 -5 -14 -17 -23 -29 -23 -12 0 -20 -7 -20 -16 0 -9 -9 -27 -20 -41 -11 -14
-20 -35 -20 -47 0 -12 -7 -31 -15 -43 -11 -16 -12 -22 -3 -25 8 -3 8 -10 -4
-26 -8 -12 -18 -19 -21 -15 -4 3 -7 -24 -7 -61 0 -37 3 -65 8 -63 4 3 8 -12 8
-33 l2 -39 -26 17 c-25 16 -26 16 -19 -1 4 -11 10 -30 13 -44 6 -24 5 -25 -20
-21 -29 6 -29 5 -6 -107 10 -46 6 -54 -20 -37 -31 19 -40 14 -40 -23 0 -19 -5
-35 -10 -35 -7 0 -8 -23 -4 -62 l6 -62 -27 18 -28 18 6 -38 c4 -22 10 -52 13
-68 6 -25 4 -28 -10 -23 -21 8 -33 -19 -18 -43 9 -15 7 -19 -9 -23 -11 -3 -19
-14 -19 -25 0 -12 -4 -23 -9 -26 -5 -3 -12 -26 -15 -51 -4 -25 -11 -45 -17
-45 -13 0 -11 38 3 42 9 3 8 16 -1 52 -12 49 -7 106 10 106 5 0 9 7 9 16 0 15
-2 15 -25 0 -58 -38 -55 -69 -55 564 0 486 -2 580 -14 580 -7 0 -20 -14 -27
-32 -7 -18 -20 -39 -29 -48 -8 -9 -22 -27 -30 -40 -21 -33 -66 -80 -76 -80
-15 -1 -64 -48 -64 -62 0 -7 -30 -33 -68 -57 -66 -45 -160 -133 -237 -226 -22
-26 -52 -61 -67 -77 -16 -16 -28 -36 -28 -44 0 -8 -4 -14 -10 -14 -5 0 -13
-12 -16 -27 -7 -31 -34 -85 -47 -94 -5 -3 -8 -15 -7 -25 5 -42 -1 -73 -15 -88
-8 -8 -18 -30 -21 -48 -7 -42 -37 -118 -46 -118 -12 0 -31 -72 -21 -79 6 -3 1
-23 -12 -49 -12 -23 -24 -39 -28 -35 -4 3 -7 1 -7 -5 0 -6 -7 -18 -16 -27 -9
-9 -20 -34 -26 -57 -9 -42 -44 -96 -50 -78 -1 5 -16 -16 -33 -48 -16 -31 -36
-62 -45 -69 -9 -6 -27 -33 -40 -59 -14 -26 -33 -49 -42 -52 -15 -4 -36 -62
-30 -84 1 -4 -10 -16 -23 -26 l-25 -20 0 -811 0 -811 3600 0 3600 0 0 930 c0
820 -2 930 -15 930 -8 0 -15 4 -15 9 0 13 -70 19 -70 6 -1 -5 -9 0 -19 13 -21
24 -37 28 -43 10 -3 -8 -14 -5 -35 10 -17 12 -35 22 -40 22 -5 0 -20 8 -33 17
-14 10 -31 19 -40 20 -23 3 -63 26 -88 51 -13 12 -27 20 -32 17 -4 -3 -11 2
-14 11 -3 8 -11 12 -17 9 -15 -10 -99 35 -99 52 0 12 -11 17 -26 11 -3 -2 -10
5 -15 15 -6 10 -22 17 -39 17 -22 0 -33 8 -50 35 -12 19 -26 33 -31 29 -5 -3
-9 1 -9 9 0 8 -20 32 -44 53 -24 21 -51 54 -60 73 -22 41 -105 155 -117 159
-5 2 -9 16 -9 32 0 18 -13 41 -36 66 -19 22 -42 54 -51 72 -8 17 -19 32 -24
32 -12 0 -49 38 -49 50 0 6 -4 10 -10 10 -5 0 -10 6 -10 14 0 14 -48 71 -55
64 -3 -2 -5 -165 -5 -361 -1 -276 -4 -366 -15 -395 l-14 -37 0 31 c-1 16 4 35
10 41 15 15 0 61 -28 83 -27 21 -68 26 -78 10 -10 -16 -55 -12 -62 5 -8 21 -1
26 46 32 32 4 40 9 37 22 -8 29 -20 106 -17 115 1 5 -6 17 -15 27 -9 10 -14
25 -11 34 4 8 2 15 -3 15 -6 0 -10 -5 -10 -10 0 -11 -59 -50 -75 -50 -6 0 -19
14 -29 31 -10 17 -32 46 -48 65 -19 21 -28 40 -24 50 4 9 1 23 -5 30 -15 18
-102 18 -162 0 -51 -15 -61 -12 -47 14 8 15 3 24 -21 44 -17 14 -34 26 -38 26
-11 0 -29 64 -36 125 -8 79 -14 107 -30 151 -18 47 -75 109 -75 81 0 -9 -5
-17 -10 -17 -13 0 -50 60 -50 81 0 9 -7 22 -15 29 -13 11 -15 8 -15 -14 0 -26
-13 -35 -25 -16 -3 5 -10 45 -15 89 -10 84 -22 117 -64 165 -31 34 -40 31 -27
-10 17 -54 21 -84 12 -84 -9 0 -51 120 -51 145 0 7 -7 19 -16 26 -14 11 -18
10 -29 -5 -13 -17 -15 -16 -29 12 -23 45 -41 52 -33 14 6 -31 -8 -46 -18 -19
-10 26 -11 93 -3 110 6 11 6 23 0 30 -5 7 -8 39 -7 72 1 33 -2 66 -8 73 -8 10
-8 16 0 20 13 8 5 62 -8 62 -5 0 -9 7 -9 15 0 8 -6 15 -14 15 -12 0 -28 40
-30 78 -1 7 -6 16 -12 20 -6 4 -15 18 -19 32 -4 14 -20 43 -36 66 -15 22 -31
53 -35 67 -3 15 -9 27 -13 28 -50 6 -120 27 -96 28 16 1 14 5 -12 21 -18 11
-33 24 -33 29 0 8 -35 25 -50 24 -3 -1 -17 8 -32 18 -14 10 -29 19 -32 19 -3
0 -26 13 -51 29 -28 18 -42 32 -35 36 19 12 28 49 17 72 -7 15 -5 29 5 50 16
32 6 73 -19 73 -7 0 -13 7 -13 15 0 8 -2 15 -5 15 -13 0 -75 -35 -78 -44 -3
-6 -3 2 -1 18 2 16 4 44 4 62 0 24 5 34 15 34 8 0 15 5 15 10 0 6 18 10 40 10
39 0 40 -1 40 -35 0 -32 24 -75 42 -75 5 0 8 25 8 56 0 44 3 55 14 51 20 -8 0
67 -32 118 -32 53 -30 51 -45 31 -11 -16 -18 -16 -55 -7 -23 7 -42 16 -42 20
0 5 -9 7 -20 4 -20 -5 -69 40 -70 65 0 6 -7 12 -15 12 -8 0 -15 7 -15 15 0 8
-9 19 -20 25 -11 6 -20 17 -20 24 0 8 -7 19 -15 26 -8 7 -15 10 -15 6z m-295
-340 c60 -6 74 -7 143 -6 43 1 125 -15 141 -26 8 -7 -41 -48 -61 -51 -60 -9
-230 -14 -245 -8 -21 9 -58 15 -95 17 -17 0 -28 7 -28 15 0 7 -11 18 -25 23
-15 6 -25 17 -25 28 0 18 7 19 73 16 39 -2 95 -6 122 -8z m-229 -61 c23 -19
52 -35 63 -35 15 0 19 -4 14 -17 -5 -12 -3 -14 8 -7 20 12 49 15 49 5 0 -11
70 -20 76 -9 9 13 24 9 24 -7 0 -8 -5 -15 -12 -15 -6 0 -9 -3 -5 -6 3 -3 20 1
37 9 27 14 32 14 37 2 4 -11 10 -12 24 -4 15 7 23 6 34 -5 21 -20 1 -33 -63
-42 -69 -9 -73 -34 -5 -34 47 0 113 18 113 31 0 4 16 10 36 13 19 4 38 14 41
22 3 7 11 14 19 14 7 0 25 11 40 25 16 15 37 25 48 23 17 -2 22 -12 26 -53 6
-54 16 -78 30 -70 5 3 11 1 15 -5 3 -5 1 -10 -4 -10 -18 0 -12 -40 9 -62 11
-12 20 -25 20 -30 0 -4 -9 -8 -20 -8 -11 0 -20 -7 -20 -15 0 -9 -6 -15 -12
-14 -16 3 -68 -11 -68 -18 0 -2 7 -11 15 -20 21 -21 14 -36 -21 -48 -16 -5
-31 -13 -34 -16 -7 -9 -68 -19 -110 -19 -35 0 -66 3 -146 16 -34 5 -45 3 -63
-15 -23 -23 -41 -27 -41 -10 0 8 -12 10 -35 6 -38 -6 -73 8 -119 48 -16 14
-32 25 -36 25 -12 0 -50 37 -50 48 0 5 -12 18 -27 28 -17 10 -23 19 -15 22 18
6 4 22 -19 22 -10 0 -19 6 -19 14 0 8 -7 16 -15 20 -8 3 -15 10 -15 16 0 5 7
10 15 10 11 0 15 11 15 40 0 38 2 40 30 40 28 0 30 2 30 40 0 22 5 40 10 40 6
0 10 6 9 13 -6 49 28 50 87 2z m-1141 -858 c-55 -22 -225 -119 -225 -128 0 -6
-4 -7 -10 -4 -5 3 -10 1 -10 -5 0 -6 -4 -8 -10 -5 -5 3 -10 -1 -10 -9 0 -9 -4
-16 -9 -16 -15 0 -101 -92 -95 -101 3 -5 1 -9 -3 -9 -5 0 -17 -16 -27 -35 -10
-19 -22 -32 -27 -30 -4 3 -11 0 -15 -6 -5 -8 -3 -9 6 -4 9 6 10 0 5 -26 -8
-37 -21 -50 -45 -46 -24 4 -25 38 -1 44 12 3 21 13 21 24 0 47 108 177 200
239 59 40 163 95 220 116 44 16 76 17 35 1z m2352 -1557 c11 0 8 -8 -12 -27
-27 -27 -45 -63 -45 -86 0 -7 9 -1 19 12 16 21 53 27 52 9 -1 -5 -1 -17 -1
-29 0 -17 -6 -20 -37 -19 -84 4 -86 -11 -6 -46 59 -26 98 -31 172 -19 48 7 46
13 23 -62 -10 -32 -10 -33 53 -77 34 -24 79 -49 98 -55 20 -7 56 -27 80 -46
24 -19 56 -37 70 -40 15 -4 31 -13 38 -21 6 -8 19 -14 29 -14 10 0 23 -7 30
-15 7 -8 24 -15 39 -15 l26 -1 -30 -25 c-16 -13 -38 -23 -47 -20 -33 8 -18
-21 45 -87 58 -62 145 -116 187 -117 19 -1 59 -30 41 -30 -11 0 -11 -3 -1 -15
11 -13 8 -15 -16 -16 -16 -1 -21 -3 -12 -6 9 -2 15 -10 12 -16 -2 -7 1 -20 8
-30 12 -17 14 -17 28 0 17 19 20 27 20 44 0 5 5 7 11 3 6 -3 14 -1 18 5 5 8
21 0 50 -25 23 -20 39 -39 36 -42 -2 -3 -12 1 -21 9 -15 12 -16 11 -10 -9 6
-19 4 -25 -13 -29 -12 -3 -21 -10 -21 -15 0 -5 -12 -25 -26 -44 l-26 -34 58 1
c33 0 97 4 144 9 76 7 88 6 118 -12 32 -20 43 -52 20 -60 -7 -3 -42 -6 -78 -7
-35 -2 -69 -6 -75 -9 -5 -4 -39 -8 -75 -9 -187 -6 -240 -9 -246 -16 -4 -4 11
-7 33 -7 50 0 100 -20 173 -70 31 -21 72 -45 91 -53 19 -8 52 -31 74 -51 49
-45 79 -61 128 -70 20 -4 37 -11 37 -16 0 -18 -35 -10 -103 24 -81 41 -149 52
-218 36 -54 -13 -75 -6 -46 15 16 12 16 13 1 19 -16 6 -16 8 1 20 13 9 15 15
6 20 -9 6 -8 12 4 26 16 18 15 19 -14 34 -42 22 -151 36 -198 25 -86 -20 -150
-2 -145 41 1 13 -1 21 -5 17 -3 -4 -17 14 -30 40 -25 54 -46 73 -79 73 -27 0
-41 17 -25 33 18 18 12 30 -13 25 -26 -5 -44 16 -24 28 7 4 6 9 -3 15 -21 12
-164 0 -257 -22 -77 -19 -85 -19 -108 -4 -27 18 -31 33 -9 41 8 4 15 15 15 26
0 11 4 27 9 37 6 10 7 39 2 67 l-8 49 -7 -48 c-12 -71 -22 -65 -30 16 -10 118
-27 176 -59 208 -16 16 -34 29 -40 29 -7 0 -23 -25 -36 -55 -23 -54 -54 -77
-80 -61 -11 7 42 115 66 134 15 11 14 12 -6 12 -33 0 -129 -29 -137 -41 -3 -6
3 -17 15 -25 28 -20 27 -34 -3 -34 -44 0 -58 12 -91 80 -39 82 -61 112 -100
133 l-30 17 33 -5 c23 -4 32 -1 32 9 0 8 2 20 5 28 3 7 -8 28 -24 46 -45 48
-22 39 29 -13 32 -32 49 -62 65 -112 12 -37 26 -68 31 -70 5 -1 19 12 32 30
23 33 76 100 119 152 66 79 99 144 123 242 8 32 16 42 33 45 15 2 21 9 20 23
-1 11 0 14 3 8 3 -7 13 -13 21 -13z m-4117 -1469 c50 -36 57 -124 14 -172 -26
-29 -79 -40 -121 -26 -101 34 -102 179 -2 214 39 13 74 8 109 -16z m3260 -172
c22 -12 40 -25 40 -30 0 -15 -63 -49 -90 -49 -30 -1 -70 -32 -70 -54 0 -14 -4
-15 -20 -6 -23 13 -27 -2 -5 -20 9 -7 13 -15 11 -17 -9 -10 -95 63 -96 81 0
13 4 16 18 11 9 -4 28 -10 42 -13 20 -4 23 -2 13 9 -20 20 -16 25 29 40 43 14
78 41 78 59 0 14 4 13 50 -11z m-241 -134 c22 -13 42 -29 46 -35 13 -21 -2
-20 -28 1 -35 27 -35 15 1 -18 25 -24 25 -25 5 -19 -15 5 -23 3 -23 -4 0 -8
-9 -10 -25 -6 -13 3 -75 2 -136 -4 l-112 -10 -34 35 c-18 19 -33 39 -33 45 0
20 45 6 55 -17 11 -26 38 -29 98 -12 30 8 37 15 37 34 0 28 16 32 39 11 20
-18 72 -10 64 10 -7 20 2 18 46 -11z m2414 -119 c18 -23 27 -47 27 -70 0 -20
4 -36 10 -36 5 0 21 -12 36 -26 19 -20 28 -24 34 -14 5 9 12 6 24 -11 16 -23
16 -24 -6 -29 -13 -3 15 -7 62 -11 69 -4 55 -6 -77 -7 l-163 -2 0 120 c0 134
6 144 53 86z m-1974 -56 c44 -30 61 -37 186 -71 85 -23 195 -25 235 -4 67 35
147 30 330 -22 86 -24 88 -25 41 -34 -66 -13 -64 -23 2 -15 42 4 56 3 52 -5
-9 -14 -775 -6 -820 9 -16 5 -29 14 -28 20 1 5 -23 13 -53 17 -44 5 -57 11
-66 30 -5 12 -21 28 -33 35 -22 12 -43 5 -147 -48 -5 -2 -8 1 -8 6 0 5 15 15
33 23 17 7 34 16 37 19 3 4 30 21 60 38 72 42 120 42 179 2z"/>
</g>
</svg>
